<svg width="185" height="252" viewBox="0 0 185 252" fill="none" xmlns="http://www.w3.org/2000/svg">
<rect width="177" height="244" transform="translate(4)" fill="white"/>
<g filter="url(#filter0_d_1_18)">
<rect x="4" width="177" height="244" rx="20" fill="#E63946" fill-opacity="0.91" shape-rendering="crispEdges"/>
</g>
<rect x="25" y="38" width="58" height="39" fill="black"/>
<rect x="103" y="38" width="58" height="39" fill="black"/>
<rect x="21" y="122" width="140" height="104" fill="#DD3B3B"/>
<path d="M65.7614 110V95.4545H70.6761C71.8172 95.4545 72.75 95.6605 73.4744 96.0724C74.2036 96.4796 74.7434 97.0312 75.0938 97.7273C75.4441 98.4233 75.6193 99.1998 75.6193 100.057C75.6193 100.914 75.4441 101.693 75.0938 102.393C74.7481 103.094 74.2131 103.653 73.4886 104.07C72.7642 104.482 71.8362 104.688 70.7045 104.688H67.1818V103.125H70.6477C71.429 103.125 72.0563 102.99 72.5298 102.72C73.0033 102.45 73.3466 102.086 73.5597 101.626C73.7775 101.162 73.8864 100.639 73.8864 100.057C73.8864 99.4744 73.7775 98.9536 73.5597 98.4943C73.3466 98.035 73.0009 97.6752 72.5227 97.4148C72.0445 97.1496 71.41 97.017 70.6193 97.017H67.5227V110H65.7614ZM90.7294 102.727C90.7294 104.261 90.4524 105.587 89.8984 106.705C89.3445 107.822 88.5845 108.684 87.6186 109.29C86.6527 109.896 85.5495 110.199 84.3089 110.199C83.0684 110.199 81.9652 109.896 80.9993 109.29C80.0334 108.684 79.2734 107.822 78.7195 106.705C78.1655 105.587 77.8885 104.261 77.8885 102.727C77.8885 101.193 78.1655 99.8674 78.7195 98.75C79.2734 97.6326 80.0334 96.7708 80.9993 96.1648C81.9652 95.5587 83.0684 95.2557 84.3089 95.2557C85.5495 95.2557 86.6527 95.5587 87.6186 96.1648C88.5845 96.7708 89.3445 97.6326 89.8984 98.75C90.4524 99.8674 90.7294 101.193 90.7294 102.727ZM89.0249 102.727C89.0249 101.468 88.8142 100.405 88.3928 99.5384C87.9761 98.6719 87.4103 98.0161 86.6953 97.571C85.9851 97.1259 85.1896 96.9034 84.3089 96.9034C83.4283 96.9034 82.6304 97.1259 81.9155 97.571C81.2053 98.0161 80.6394 98.6719 80.218 99.5384C79.8014 100.405 79.593 101.468 79.593 102.727C79.593 103.987 79.8014 105.05 80.218 105.916C80.6394 106.783 81.2053 107.438 81.9155 107.884C82.6304 108.329 83.4283 108.551 84.3089 108.551C85.1896 108.551 85.9851 108.329 86.6953 107.884C87.4103 107.438 87.9761 106.783 88.3928 105.916C88.8142 105.05 89.0249 103.987 89.0249 102.727ZM101.646 99.0909C101.56 98.3712 101.215 97.8125 100.609 97.4148C100.003 97.017 99.2592 96.8182 98.3786 96.8182C97.7346 96.8182 97.1712 96.9223 96.6882 97.1307C96.21 97.339 95.8359 97.6255 95.5661 97.9901C95.3009 98.3546 95.1683 98.7689 95.1683 99.233C95.1683 99.6212 95.2607 99.955 95.4453 100.234C95.6347 100.509 95.8762 100.739 96.1697 100.923C96.4633 101.103 96.7711 101.252 97.093 101.371C97.415 101.484 97.7109 101.577 97.9808 101.648L99.4581 102.045C99.8369 102.145 100.258 102.282 100.722 102.457C101.191 102.633 101.638 102.872 102.065 103.175C102.496 103.473 102.851 103.857 103.13 104.325C103.409 104.794 103.549 105.369 103.549 106.051C103.549 106.837 103.343 107.547 102.931 108.182C102.524 108.816 101.927 109.321 101.141 109.695C100.36 110.069 99.4107 110.256 98.2933 110.256C97.2517 110.256 96.3497 110.088 95.5874 109.751C94.8298 109.415 94.2332 108.946 93.7976 108.345C93.3667 107.744 93.1229 107.045 93.0661 106.25H94.8842C94.9316 106.799 95.1162 107.254 95.4382 107.614C95.7649 107.969 96.1768 108.234 96.674 108.409C97.1759 108.58 97.7157 108.665 98.2933 108.665C98.9657 108.665 99.5694 108.556 100.104 108.338C100.639 108.116 101.063 107.808 101.376 107.415C101.688 107.017 101.844 106.553 101.844 106.023C101.844 105.54 101.71 105.147 101.44 104.844C101.17 104.541 100.815 104.295 100.374 104.105C99.9339 103.916 99.4581 103.75 98.9467 103.608L97.157 103.097C96.0206 102.77 95.121 102.304 94.4581 101.697C93.7952 101.091 93.4638 100.298 93.4638 99.3182C93.4638 98.5038 93.6839 97.7936 94.1243 97.1875C94.5694 96.5767 95.166 96.1032 95.9141 95.767C96.6669 95.4261 97.5073 95.2557 98.4354 95.2557C99.3729 95.2557 100.206 95.4238 100.935 95.7599C101.665 96.0914 102.242 96.5459 102.668 97.1236C103.099 97.7012 103.326 98.357 103.35 99.0909H101.646ZM105.65 97.017V95.4545H116.559V97.017H111.985V110H110.223V97.017H105.65Z" fill="black"/>
<rect x="31" y="165" width="2" height="17" fill="#D9D9D9"/>
<defs>
<filter id="filter0_d_1_18" x="0" y="0" width="185" height="252" filterUnits="userSpaceOnUse" color-interpolation-filters="sRGB">
<feFlood flood-opacity="0" result="BackgroundImageFix"/>
<feColorMatrix in="SourceAlpha" type="matrix" values="0 0 0 0 0 0 0 0 0 0 0 0 0 0 0 0 0 0 127 0" result="hardAlpha"/>
<feOffset dy="4"/>
<feGaussianBlur stdDeviation="2"/>
<feComposite in2="hardAlpha" operator="out"/>
<feColorMatrix type="matrix" values="0 0 0 0 0 0 0 0 0 0 0 0 0 0 0 0 0 0 0.25 0"/>
<feBlend mode="normal" in2="BackgroundImageFix" result="effect1_dropShadow_1_18"/>
<feBlend mode="normal" in="SourceGraphic" in2="effect1_dropShadow_1_18" result="shape"/>
</filter>
</defs>
</svg>
